# xmcd
#
# Track frame offsets:
# 150
# 13685
# 27650
# 42747
# 57355
# 72832
# 87407
# 102610
# 113902
# 129540
# 142710
# 161882
# 174092
# 188325
# 200747
# 215417
# 230555
# 244707
#
# Disc length: 3427 seconds
#
# Revision: 2
# Processed by: cddbd v1.4PL0 Copyright (c) Steve Scherf et al.
# Submitted via: Axialis_AX_CDPlayer 2.6
#
DISCID=040d6112
DTITLE=Frank Sinatra - Portrait Of Sinatra [CD1]
DYEAR=1900
DGENRE=
TTITLE0=All Or Nothing At All
TTITLE1=If You Are But A Dream
TTITLE2=Night And Day
TTITLE3=Sweet Lorraine
TTITLE4=Guess I'll Hang My Tears Out to Dry
TTITLE5=Nancy (With The Laughing Face)
TTITLE6=The House I Live In
TTITLE7=Blue Skies
TTITLE8=There's No You
TTITLE9=Wehn Your Lover Has Gone
TTITLE10=Stormy Weather
TTITLE11=The Nearness Of You
TTITLE12=These Foolish Things (Remind Me Of You)
TTITLE13=Saturday Night (Is The Lonliest Night In The Week)
TTITLE14=Where Or When
TTITLE15=Someone To Watch Over Me
TTITLE16=Put Your Dreams Away (For Another Day)
TTITLE17=All Of Me
EXTD=
EXTT0=2:57\n
EXTT1=3:03\n
EXTT2=3:18\n
EXTT3=3:13\n
EXTT4=3:23\n
EXTT5=3:11\n
EXTT6=3:20\n
EXTT7=2:28\n
EXTT8=3:25\n
EXTT9=2:53\n
EXTT10=4:13\n
EXTT11=2:40\n
EXTT12=3:07\n
EXTT13=2:43\n
EXTT14=3:13\n
EXTT15=3:18\n
EXTT16=3:06\n
EXTT17=2:44\n
PLAYORDER=
